<svg xmlns="http://www.w3.org/2000/svg" xmlns:xlink="http://www.w3.org/1999/xlink" width="28px" height="28px" viewBox="0 0 28 28" version="1.1">
    <title>vk</title>
    <defs/>
    <g id="Page-1" stroke="none" stroke-width="1" fill="none" fill-rule="evenodd">
        <g id="vk-white" fill="#FFFFFF">
            <g transform="translate(3.000000, 8.000000)" id="Shape">
                <path d="M10.883,11.396 C10.883,11.396 11.208,11.36 11.373,11.178 C11.527,11.011 11.523,10.698 11.523,10.698 C11.523,10.698 11.5,9.23 12.171,9.014 C12.831,8.801 13.681,10.432 14.579,11.06 C15.259,11.534 15.776,11.43 15.776,11.43 L18.18,11.396 C18.18,11.396 19.436,11.316 18.84,10.312 C18.79,10.23 18.492,9.569 17.052,8.21 C15.545,6.787 15.747,7.018 17.562,4.557 C18.668,3.059 19.11,2.145 18.972,1.753 C18.84,1.38 18.027,1.478 18.027,1.478 L15.321,1.495 C15.321,1.495 15.121,1.467 14.971,1.558 C14.827,1.646 14.733,1.853 14.733,1.853 C14.733,1.853 14.305,3.013 13.733,3.999 C12.529,6.079 12.047,6.189 11.85,6.059 C11.39,5.759 11.505,4.849 11.505,4.204 C11.505,2.187 11.805,1.347 10.919,1.129 C10.624,1.057 10.407,1.009 9.655,1.001 C8.689,0.991 7.872,1.004 7.409,1.235 C7.101,1.388 6.863,1.73 7.009,1.749 C7.187,1.774 7.592,1.859 7.807,2.159 C8.084,2.541 8.075,3.403 8.075,3.403 C8.075,3.403 8.235,5.776 7.702,6.071 C7.337,6.273 6.837,5.861 5.762,3.973 C5.212,3.006 4.796,1.937 4.796,1.937 C4.796,1.937 4.716,1.737 4.573,1.631 C4.4,1.501 4.157,1.461 4.157,1.461 L1.587,1.477 C1.587,1.477 1.199,1.487 1.057,1.659 C0.932,1.811 1.047,2.125 1.047,2.125 C1.047,2.125 3.061,6.915 5.341,9.327 C7.431,11.541 9.806,11.395 9.806,11.395 L10.882,11.395 L10.883,11.396 Z" id="Shape"/>
            </g>
        </g>
    </g>
</svg>